%TF.GenerationSoftware,KiCad,Pcbnew,8.0.4+1*%
%TF.CreationDate,2024-08-13T20:11:20+02:00*%
%TF.ProjectId,QL_mIce_Starmouse,514c5f6d-4963-4655-9f53-7461726d6f75,0*%
%TF.SameCoordinates,Original*%
%TF.FileFunction,Soldermask,Bot*%
%TF.FilePolarity,Negative*%
%FSLAX46Y46*%
G04 Gerber Fmt 4.6, Leading zero omitted, Abs format (unit mm)*
G04 Created by KiCad (PCBNEW 8.0.4+1) date 2024-08-13 20:11:20*
%MOMM*%
%LPD*%
G01*
G04 APERTURE LIST*
G04 Aperture macros list*
%AMRoundRect*
0 Rectangle with rounded corners*
0 $1 Rounding radius*
0 $2 $3 $4 $5 $6 $7 $8 $9 X,Y pos of 4 corners*
0 Add a 4 corners polygon primitive as box body*
4,1,4,$2,$3,$4,$5,$6,$7,$8,$9,$2,$3,0*
0 Add four circle primitives for the rounded corners*
1,1,$1+$1,$2,$3*
1,1,$1+$1,$4,$5*
1,1,$1+$1,$6,$7*
1,1,$1+$1,$8,$9*
0 Add four rect primitives between the rounded corners*
20,1,$1+$1,$2,$3,$4,$5,0*
20,1,$1+$1,$4,$5,$6,$7,0*
20,1,$1+$1,$6,$7,$8,$9,0*
20,1,$1+$1,$8,$9,$2,$3,0*%
G04 Aperture macros list end*
%ADD10C,0.070000*%
%ADD11C,0.150000*%
%ADD12C,1.700000*%
%ADD13R,1.600000X2.400000*%
%ADD14O,1.600000X2.400000*%
%ADD15C,1.600000*%
%ADD16O,1.600000X1.600000*%
%ADD17R,1.500000X1.600000*%
%ADD18C,3.000000*%
%ADD19RoundRect,0.250000X0.845000X-0.620000X0.845000X0.620000X-0.845000X0.620000X-0.845000X-0.620000X0*%
%ADD20O,2.190000X1.740000*%
%ADD21R,1.300000X1.300000*%
%ADD22C,1.300000*%
%ADD23R,2.400000X1.600000*%
%ADD24O,2.400000X1.600000*%
%ADD25R,1.700000X1.700000*%
%ADD26O,1.700000X1.700000*%
%ADD27R,2.200000X2.200000*%
%ADD28O,2.200000X2.200000*%
G04 APERTURE END LIST*
D10*
X111760000Y-125349000D02*
X151917400Y-125349000D01*
X151917400Y-133654800D01*
X111760000Y-133654800D01*
X111760000Y-125349000D01*
G36*
X111760000Y-125349000D02*
G01*
X151917400Y-125349000D01*
X151917400Y-133654800D01*
X111760000Y-133654800D01*
X111760000Y-125349000D01*
G37*
D11*
%TO.C,J2*%
X151638000Y-133517000D02*
X112522000Y-133517000D01*
X112522000Y-125389000D01*
X151638000Y-125389000D01*
X151638000Y-133517000D01*
G36*
X151638000Y-133517000D02*
G01*
X112522000Y-133517000D01*
X112522000Y-125389000D01*
X151638000Y-125389000D01*
X151638000Y-133517000D01*
G37*
%TD*%
D12*
%TO.C,RZ1*%
X196850000Y-63900000D03*
X196850000Y-66440000D03*
X196850000Y-68980000D03*
X196850000Y-71520000D03*
X196850000Y-74060000D03*
X196850000Y-76600000D03*
X196850000Y-79140000D03*
X196850000Y-81680000D03*
X196850000Y-84220000D03*
X194310000Y-84430000D03*
X191770000Y-84430000D03*
X189230000Y-84430000D03*
X186690000Y-84430000D03*
X184150000Y-84430000D03*
X181610000Y-84220000D03*
X181610000Y-81680000D03*
X181610000Y-79140000D03*
X181610000Y-76600000D03*
X181610000Y-74060000D03*
X181610000Y-71520000D03*
X181610000Y-68980000D03*
X181610000Y-63900000D03*
X181610000Y-66440000D03*
%TD*%
D13*
%TO.C,U2*%
X116840000Y-73660000D03*
D14*
X119380000Y-73660000D03*
X121920000Y-73660000D03*
X124460000Y-73660000D03*
X127000000Y-73660000D03*
X129540000Y-73660000D03*
X132080000Y-73660000D03*
X132080000Y-66040000D03*
X129540000Y-66040000D03*
X127000000Y-66040000D03*
X124460000Y-66040000D03*
X121920000Y-66040000D03*
X119380000Y-66040000D03*
X116840000Y-66040000D03*
%TD*%
D15*
%TO.C,R1*%
X113030000Y-73660000D03*
D16*
X113030000Y-66040000D03*
%TD*%
D15*
%TO.C,C3*%
X176911000Y-63286000D03*
X176911000Y-68286000D03*
%TD*%
%TO.C,C1*%
X109855000Y-71120000D03*
X109855000Y-66120000D03*
%TD*%
D17*
%TO.C,J1*%
X220175000Y-95250000D03*
D15*
X220175000Y-92750000D03*
X220175000Y-90750000D03*
X220175000Y-88250000D03*
D18*
X222885000Y-98320000D03*
X222885000Y-85180000D03*
%TD*%
D19*
%TO.C,J7*%
X228600000Y-78994000D03*
D20*
X228600000Y-76454000D03*
X228600000Y-73914000D03*
X228600000Y-71374000D03*
X228600000Y-68834000D03*
X228600000Y-66294000D03*
%TD*%
D21*
%TO.C,Q2*%
X220472000Y-75184000D03*
D22*
X221742000Y-73914000D03*
X223012000Y-75184000D03*
%TD*%
D23*
%TO.C,U5*%
X152400000Y-80010000D03*
D24*
X152400000Y-82550000D03*
X152400000Y-85090000D03*
X152400000Y-87630000D03*
X152400000Y-90170000D03*
X152400000Y-92710000D03*
X152400000Y-95250000D03*
X152400000Y-97790000D03*
X152400000Y-100330000D03*
X152400000Y-102870000D03*
X160020000Y-102870000D03*
X160020000Y-100330000D03*
X160020000Y-97790000D03*
X160020000Y-95250000D03*
X160020000Y-92710000D03*
X160020000Y-90170000D03*
X160020000Y-87630000D03*
X160020000Y-85090000D03*
X160020000Y-82550000D03*
X160020000Y-80010000D03*
%TD*%
D21*
%TO.C,Q4*%
X220472000Y-69829000D03*
D22*
X221742000Y-68559000D03*
X223012000Y-69829000D03*
%TD*%
D21*
%TO.C,Q5*%
X213741000Y-67564000D03*
D22*
X215011000Y-66294000D03*
X216281000Y-67564000D03*
%TD*%
D25*
%TO.C,SW1*%
X203200000Y-63881000D03*
D26*
X205740000Y-63881000D03*
X208280000Y-63881000D03*
%TD*%
D15*
%TO.C,R5*%
X189470000Y-87630000D03*
D16*
X189470000Y-95250000D03*
%TD*%
D21*
%TO.C,Q1*%
X213741000Y-77703000D03*
D22*
X215011000Y-76433000D03*
X216281000Y-77703000D03*
%TD*%
D13*
%TO.C,U1*%
X111760000Y-85090000D03*
D14*
X114300000Y-85090000D03*
X116840000Y-85090000D03*
X119380000Y-85090000D03*
X121920000Y-85090000D03*
X124460000Y-85090000D03*
X127000000Y-85090000D03*
X129540000Y-85090000D03*
X129540000Y-77470000D03*
X127000000Y-77470000D03*
X124460000Y-77470000D03*
X121920000Y-77470000D03*
X119380000Y-77470000D03*
X116840000Y-77470000D03*
X114300000Y-77470000D03*
X111760000Y-77470000D03*
%TD*%
D23*
%TO.C,U3*%
X140970000Y-66040000D03*
D24*
X140970000Y-68580000D03*
X140970000Y-71120000D03*
X140970000Y-73660000D03*
X140970000Y-76200000D03*
X140970000Y-78740000D03*
X140970000Y-81280000D03*
X148590000Y-81280000D03*
X148590000Y-78740000D03*
X148590000Y-76200000D03*
X148590000Y-73660000D03*
X148590000Y-71120000D03*
X148590000Y-68580000D03*
X148590000Y-66040000D03*
%TD*%
D15*
%TO.C,R4*%
X152400000Y-76200000D03*
D16*
X160020000Y-76200000D03*
%TD*%
D15*
%TO.C,R6*%
X185420000Y-87630000D03*
D16*
X185420000Y-95250000D03*
%TD*%
D13*
%TO.C,IC1*%
X114300000Y-104120000D03*
D14*
X116840000Y-104120000D03*
X119380000Y-104120000D03*
X121920000Y-104120000D03*
X124460000Y-104120000D03*
X127000000Y-104120000D03*
X129540000Y-104120000D03*
X132080000Y-104120000D03*
X134620000Y-104120000D03*
X137160000Y-104120000D03*
X139700000Y-104120000D03*
X142240000Y-104120000D03*
X144780000Y-104120000D03*
X147320000Y-104120000D03*
X147320000Y-88880000D03*
X144780000Y-88880000D03*
X142240000Y-88880000D03*
X139700000Y-88880000D03*
X137160000Y-88880000D03*
X134620000Y-88880000D03*
X132080000Y-88880000D03*
X129540000Y-88880000D03*
X127000000Y-88880000D03*
X124460000Y-88880000D03*
X121920000Y-88880000D03*
X119380000Y-88880000D03*
X116840000Y-88880000D03*
X114300000Y-88880000D03*
%TD*%
D21*
%TO.C,Q3*%
X213741000Y-72729000D03*
D22*
X215011000Y-71459000D03*
X216281000Y-72729000D03*
%TD*%
D15*
%TO.C,R2*%
X152400000Y-68580000D03*
D16*
X160020000Y-68580000D03*
%TD*%
D15*
%TO.C,C2*%
X157480000Y-65532000D03*
X162480000Y-65532000D03*
%TD*%
D27*
%TO.C,D1*%
X177800000Y-71120000D03*
D28*
X177800000Y-81280000D03*
%TD*%
D15*
%TO.C,R3*%
X152400000Y-72390000D03*
D16*
X160020000Y-72390000D03*
%TD*%
D25*
%TO.C,J6*%
X165100000Y-90170000D03*
D26*
X165100000Y-92710000D03*
X165100000Y-95250000D03*
X165100000Y-97790000D03*
X165100000Y-100330000D03*
%TD*%
D25*
%TO.C,J3*%
X173990000Y-70485000D03*
D26*
X173990000Y-73025000D03*
X173990000Y-75565000D03*
X173990000Y-78105000D03*
%TD*%
D25*
%TO.C,J4*%
X173990000Y-90170000D03*
D26*
X173990000Y-92710000D03*
X173990000Y-95250000D03*
X173990000Y-97790000D03*
X173990000Y-100330000D03*
%TD*%
D25*
%TO.C,J5*%
X165100000Y-70485000D03*
D26*
X165100000Y-73025000D03*
X165100000Y-75565000D03*
X165100000Y-78105000D03*
%TD*%
M02*
