M48
; DRILL file {KiCad 8.0.4+1} date 2024-08-13T20:11:21+0200
; FORMAT={-:-/ absolute / metric / decimal}
; #@! TF.CreationDate,2024-08-13T20:11:21+02:00
; #@! TF.GenerationSoftware,Kicad,Pcbnew,8.0.4+1
; #@! TF.FileFunction,Plated,1,2,PTH
FMAT,2
METRIC
; #@! TA.AperFunction,Plated,PTH,ComponentDrill
T1C0.750
; #@! TA.AperFunction,Plated,PTH,ViaDrill
T2C0.800
; #@! TA.AperFunction,Plated,PTH,ComponentDrill
T3C0.800
; #@! TA.AperFunction,Plated,PTH,ComponentDrill
T4C0.950
; #@! TA.AperFunction,Plated,PTH,ComponentDrill
T5C1.000
; #@! TA.AperFunction,Plated,PTH,ComponentDrill
T6C1.100
; #@! TA.AperFunction,Plated,PTH,ComponentDrill
T7C1.190
; #@! TA.AperFunction,Plated,PTH,ComponentDrill
T8C2.300
%
G90
G05
T1
X213.741Y-67.564
X213.741Y-72.729
X213.741Y-77.703
X215.011Y-66.294
X215.011Y-71.459
X215.011Y-76.433
X216.281Y-67.564
X216.281Y-72.729
X216.281Y-77.703
X220.472Y-69.829
X220.472Y-75.184
X221.742Y-68.559
X221.742Y-73.914
X223.012Y-69.829
X223.012Y-75.184
T2
X140.97Y-85.09
X144.145Y-67.31
X144.145Y-76.2
X144.78Y-85.09
X148.59Y-96.52
X169.545Y-90.17
X169.545Y-92.71
X169.545Y-95.25
X169.545Y-97.79
X169.545Y-100.33
T3
X109.855Y-66.12
X109.855Y-71.12
X111.76Y-77.47
X111.76Y-85.09
X113.03Y-66.04
X113.03Y-73.66
X114.3Y-77.47
X114.3Y-85.09
X114.3Y-88.88
X114.3Y-104.12
X116.84Y-66.04
X116.84Y-73.66
X116.84Y-77.47
X116.84Y-85.09
X116.84Y-88.88
X116.84Y-104.12
X119.38Y-66.04
X119.38Y-73.66
X119.38Y-77.47
X119.38Y-85.09
X119.38Y-88.88
X119.38Y-104.12
X121.92Y-66.04
X121.92Y-73.66
X121.92Y-77.47
X121.92Y-85.09
X121.92Y-88.88
X121.92Y-104.12
X124.46Y-66.04
X124.46Y-73.66
X124.46Y-77.47
X124.46Y-85.09
X124.46Y-88.88
X124.46Y-104.12
X127.0Y-66.04
X127.0Y-73.66
X127.0Y-77.47
X127.0Y-85.09
X127.0Y-88.88
X127.0Y-104.12
X129.54Y-66.04
X129.54Y-73.66
X129.54Y-77.47
X129.54Y-85.09
X129.54Y-88.88
X129.54Y-104.12
X132.08Y-66.04
X132.08Y-73.66
X132.08Y-88.88
X132.08Y-104.12
X134.62Y-88.88
X134.62Y-104.12
X137.16Y-88.88
X137.16Y-104.12
X139.7Y-88.88
X139.7Y-104.12
X140.97Y-66.04
X140.97Y-68.58
X140.97Y-71.12
X140.97Y-73.66
X140.97Y-76.2
X140.97Y-78.74
X140.97Y-81.28
X142.24Y-88.88
X142.24Y-104.12
X144.78Y-88.88
X144.78Y-104.12
X147.32Y-88.88
X147.32Y-104.12
X148.59Y-66.04
X148.59Y-68.58
X148.59Y-71.12
X148.59Y-73.66
X148.59Y-76.2
X148.59Y-78.74
X148.59Y-81.28
X152.4Y-68.58
X152.4Y-72.39
X152.4Y-76.2
X152.4Y-80.01
X152.4Y-82.55
X152.4Y-85.09
X152.4Y-87.63
X152.4Y-90.17
X152.4Y-92.71
X152.4Y-95.25
X152.4Y-97.79
X152.4Y-100.33
X152.4Y-102.87
X157.48Y-65.532
X160.02Y-68.58
X160.02Y-72.39
X160.02Y-76.2
X160.02Y-80.01
X160.02Y-82.55
X160.02Y-85.09
X160.02Y-87.63
X160.02Y-90.17
X160.02Y-92.71
X160.02Y-95.25
X160.02Y-97.79
X160.02Y-100.33
X160.02Y-102.87
X162.48Y-65.532
X176.911Y-63.286
X176.911Y-68.286
X185.42Y-87.63
X185.42Y-95.25
X189.47Y-87.63
X189.47Y-95.25
T4
X220.175Y-88.25
X220.175Y-90.75
X220.175Y-92.75
X220.175Y-95.25
T5
X165.1Y-70.485
X165.1Y-73.025
X165.1Y-75.565
X165.1Y-78.105
X165.1Y-90.17
X165.1Y-92.71
X165.1Y-95.25
X165.1Y-97.79
X165.1Y-100.33
X173.99Y-70.485
X173.99Y-73.025
X173.99Y-75.565
X173.99Y-78.105
X173.99Y-90.17
X173.99Y-92.71
X173.99Y-95.25
X173.99Y-97.79
X173.99Y-100.33
X181.61Y-63.9
X181.61Y-66.44
X181.61Y-68.98
X181.61Y-71.52
X181.61Y-74.06
X181.61Y-76.6
X181.61Y-79.14
X181.61Y-81.68
X181.61Y-84.22
X184.15Y-84.43
X186.69Y-84.43
X189.23Y-84.43
X191.77Y-84.43
X194.31Y-84.43
X196.85Y-63.9
X196.85Y-66.44
X196.85Y-68.98
X196.85Y-71.52
X196.85Y-74.06
X196.85Y-76.6
X196.85Y-79.14
X196.85Y-81.68
X196.85Y-84.22
X203.2Y-63.881
X205.74Y-63.881
X208.28Y-63.881
T6
X177.8Y-71.12
X177.8Y-81.28
T7
X228.6Y-66.294
X228.6Y-68.834
X228.6Y-71.374
X228.6Y-73.914
X228.6Y-76.454
X228.6Y-78.994
T8
X222.885Y-85.18
X222.885Y-98.32
M30
