M48
METRIC,TZ
T1C0.750
T2C0.800
T3C0.800
T4C0.950
T5C1.000
T6C1.100
T7C1.190
T8C2.300
%
G90
G05
T1
X213741Y-67564
X213741Y-72729
X213741Y-77703
X215011Y-66294
X215011Y-71459
X215011Y-76433
X216281Y-67564
X216281Y-72729
X216281Y-77703
X220472Y-69829
X220472Y-75184
X221742Y-68559
X221742Y-73914
X223012Y-69829
X223012Y-75184
T2
X140970Y-85090
X144145Y-67310
X144145Y-76200
X144780Y-85090
X148590Y-96520
X169545Y-90170
X169545Y-92710
X169545Y-95250
X169545Y-97790
X169545Y-100330
T3
X109855Y-66120
X109855Y-71120
X111760Y-77470
X111760Y-85090
X113030Y-66040
X113030Y-73660
X114300Y-77470
X114300Y-85090
X114300Y-88880
X114300Y-104120
X116840Y-66040
X116840Y-73660
X116840Y-77470
X116840Y-85090
X116840Y-88880
X116840Y-104120
X119380Y-66040
X119380Y-73660
X119380Y-77470
X119380Y-85090
X119380Y-88880
X119380Y-104120
X121920Y-66040
X121920Y-73660
X121920Y-77470
X121920Y-85090
X121920Y-88880
X121920Y-104120
X124460Y-66040
X124460Y-73660
X124460Y-77470
X124460Y-85090
X124460Y-88880
X124460Y-104120
X127000Y-66040
X127000Y-73660
X127000Y-77470
X127000Y-85090
X127000Y-88880
X127000Y-104120
X129540Y-66040
X129540Y-73660
X129540Y-77470
X129540Y-85090
X129540Y-88880
X129540Y-104120
X132080Y-66040
X132080Y-73660
X132080Y-88880
X132080Y-104120
X134620Y-88880
X134620Y-104120
X137160Y-88880
X137160Y-104120
X139700Y-88880
X139700Y-104120
X140970Y-66040
X140970Y-68580
X140970Y-71120
X140970Y-73660
X140970Y-76200
X140970Y-78740
X140970Y-81280
X142240Y-88880
X142240Y-104120
X144780Y-88880
X144780Y-104120
X147320Y-88880
X147320Y-104120
X148590Y-66040
X148590Y-68580
X148590Y-71120
X148590Y-73660
X148590Y-76200
X148590Y-78740
X148590Y-81280
X152400Y-68580
X152400Y-72390
X152400Y-76200
X152400Y-80010
X152400Y-82550
X152400Y-85090
X152400Y-87630
X152400Y-90170
X152400Y-92710
X152400Y-95250
X152400Y-97790
X152400Y-100330
X152400Y-102870
X157480Y-65532
X160020Y-68580
X160020Y-72390
X160020Y-76200
X160020Y-80010
X160020Y-82550
X160020Y-85090
X160020Y-87630
X160020Y-90170
X160020Y-92710
X160020Y-95250
X160020Y-97790
X160020Y-100330
X160020Y-102870
X162480Y-65532
X176911Y-63286
X176911Y-68286
X181610Y-63900
X181610Y-66440
X181610Y-68980
X181610Y-71520
X181610Y-74060
X181610Y-76600
X181610Y-79140
X181610Y-81680
X181610Y-84220
X184150Y-84430
X185420Y-87630
X185420Y-95250
X186690Y-84430
X189230Y-84430
X189470Y-87630
X189470Y-95250
X191770Y-84430
X194310Y-84430
X196850Y-63900
X196850Y-66440
X196850Y-68980
X196850Y-71520
X196850Y-74060
X196850Y-76600
X196850Y-79140
X196850Y-81680
X196850Y-84220
T4
X220175Y-88250
X220175Y-90750
X220175Y-92750
X220175Y-95250
T5
X165100Y-70485
X165100Y-73025
X165100Y-75565
X165100Y-78105
X165100Y-90170
X165100Y-92710
X165100Y-95250
X165100Y-97790
X165100Y-100330
X173990Y-70485
X173990Y-73025
X173990Y-75565
X173990Y-78105
X173990Y-90170
X173990Y-92710
X173990Y-95250
X173990Y-97790
X173990Y-100330
X203200Y-63881
X205740Y-63881
X208280Y-63881
T6
X177800Y-71120
X177800Y-81280
T7
X228600Y-66294
X228600Y-68834
X228600Y-71374
X228600Y-73914
X228600Y-76454
X228600Y-78994
T8
X222885Y-85180
X222885Y-98320
M30
