%TF.GenerationSoftware,KiCad,Pcbnew,8.0.4+1*%
%TF.CreationDate,2024-08-13T20:11:21+02:00*%
%TF.ProjectId,QL_mIce_Starmouse,514c5f6d-4963-4655-9f53-7461726d6f75,0*%
%TF.SameCoordinates,Original*%
%TF.FileFunction,Profile,NP*%
%FSLAX46Y46*%
G04 Gerber Fmt 4.6, Leading zero omitted, Abs format (unit mm)*
G04 Created by KiCad (PCBNEW 8.0.4+1) date 2024-08-13 20:11:21*
%MOMM*%
%LPD*%
G01*
G04 APERTURE LIST*
%TA.AperFunction,Profile*%
%ADD10C,0.100000*%
%TD*%
%ADD11C,0.350000*%
G04 APERTURE END LIST*
D10*
X106680000Y-106680000D02*
X106680000Y-62230000D01*
X151765000Y-133604000D02*
X127889000Y-133604000D01*
X168910000Y-106680000D02*
X168910000Y-102870000D01*
X168910000Y-67945000D02*
X170180000Y-67945000D01*
X206457864Y-81280000D02*
G75*
G02*
X202482136Y-81280000I-1987864J0D01*
G01*
X202482136Y-81280000D02*
G75*
G02*
X206457864Y-81280000I1987864J0D01*
G01*
X168910000Y-102870000D02*
X170180000Y-102870000D01*
X151765000Y-106680000D02*
X151765000Y-133604000D01*
X170180000Y-106680000D02*
X232410000Y-106680000D01*
X170180000Y-102870000D02*
X170180000Y-106680000D01*
X127889000Y-133604000D02*
X127889000Y-122344500D01*
X151765000Y-106680000D02*
X168910000Y-106680000D01*
X126111000Y-122344500D02*
G75*
G02*
X127889000Y-122344500I889000J0D01*
G01*
X168910000Y-62230000D02*
X168910000Y-67945000D01*
X168910000Y-87630000D02*
X168910000Y-81280000D01*
X111760000Y-133604000D02*
X111760000Y-106680000D01*
X232410000Y-62230000D02*
X170180000Y-62230000D01*
X106680000Y-106680000D02*
X111760000Y-106680000D01*
X232410000Y-62230000D02*
X232410000Y-106680000D01*
X170180000Y-87630000D02*
X168910000Y-87630000D01*
X168910000Y-62230000D02*
X106680000Y-62230000D01*
X126111000Y-133604000D02*
X111760000Y-133604000D01*
X136607864Y-81280000D02*
G75*
G02*
X132632136Y-81280000I-1987864J0D01*
G01*
X132632136Y-81280000D02*
G75*
G02*
X136607864Y-81280000I1987864J0D01*
G01*
X126111000Y-122344500D02*
X126111000Y-133604000D01*
X170180000Y-81280000D02*
X170180000Y-87630000D01*
X170180000Y-67945000D02*
X170180000Y-62230000D01*
X168910000Y-81280000D02*
X170180000Y-81280000D01*
D11*
X196850000Y-63900000D03*
X196850000Y-66440000D03*
X196850000Y-68980000D03*
X196850000Y-71520000D03*
X196850000Y-74060000D03*
X196850000Y-76600000D03*
X196850000Y-79140000D03*
X196850000Y-81680000D03*
X196850000Y-84220000D03*
X194310000Y-84430000D03*
X191770000Y-84430000D03*
X189230000Y-84430000D03*
X186690000Y-84430000D03*
X184150000Y-84430000D03*
X181610000Y-84220000D03*
X181610000Y-81680000D03*
X181610000Y-79140000D03*
X181610000Y-76600000D03*
X181610000Y-74060000D03*
X181610000Y-71520000D03*
X181610000Y-68980000D03*
X181610000Y-63900000D03*
X181610000Y-66440000D03*
X116840000Y-73660000D03*
X119380000Y-73660000D03*
X121920000Y-73660000D03*
X124460000Y-73660000D03*
X127000000Y-73660000D03*
X129540000Y-73660000D03*
X132080000Y-73660000D03*
X132080000Y-66040000D03*
X129540000Y-66040000D03*
X127000000Y-66040000D03*
X124460000Y-66040000D03*
X121920000Y-66040000D03*
X119380000Y-66040000D03*
X116840000Y-66040000D03*
X113030000Y-73660000D03*
X113030000Y-66040000D03*
X176911000Y-63286000D03*
X176911000Y-68286000D03*
X109855000Y-71120000D03*
X109855000Y-66120000D03*
X220175000Y-95250000D03*
X220175000Y-92750000D03*
X220175000Y-90750000D03*
X220175000Y-88250000D03*
X222885000Y-98320000D03*
X222885000Y-85180000D03*
X228600000Y-78994000D03*
X228600000Y-76454000D03*
X228600000Y-73914000D03*
X228600000Y-71374000D03*
X228600000Y-68834000D03*
X228600000Y-66294000D03*
X220472000Y-75184000D03*
X221742000Y-73914000D03*
X223012000Y-75184000D03*
X152400000Y-80010000D03*
X152400000Y-82550000D03*
X152400000Y-85090000D03*
X152400000Y-87630000D03*
X152400000Y-90170000D03*
X152400000Y-92710000D03*
X152400000Y-95250000D03*
X152400000Y-97790000D03*
X152400000Y-100330000D03*
X152400000Y-102870000D03*
X160020000Y-102870000D03*
X160020000Y-100330000D03*
X160020000Y-97790000D03*
X160020000Y-95250000D03*
X160020000Y-92710000D03*
X160020000Y-90170000D03*
X160020000Y-87630000D03*
X160020000Y-85090000D03*
X160020000Y-82550000D03*
X160020000Y-80010000D03*
X220472000Y-69829000D03*
X221742000Y-68559000D03*
X223012000Y-69829000D03*
X213741000Y-67564000D03*
X215011000Y-66294000D03*
X216281000Y-67564000D03*
X203200000Y-63881000D03*
X205740000Y-63881000D03*
X208280000Y-63881000D03*
X189470000Y-87630000D03*
X189470000Y-95250000D03*
X213741000Y-77703000D03*
X215011000Y-76433000D03*
X216281000Y-77703000D03*
X111760000Y-85090000D03*
X114300000Y-85090000D03*
X116840000Y-85090000D03*
X119380000Y-85090000D03*
X121920000Y-85090000D03*
X124460000Y-85090000D03*
X127000000Y-85090000D03*
X129540000Y-85090000D03*
X129540000Y-77470000D03*
X127000000Y-77470000D03*
X124460000Y-77470000D03*
X121920000Y-77470000D03*
X119380000Y-77470000D03*
X116840000Y-77470000D03*
X114300000Y-77470000D03*
X111760000Y-77470000D03*
X140970000Y-66040000D03*
X140970000Y-68580000D03*
X140970000Y-71120000D03*
X140970000Y-73660000D03*
X140970000Y-76200000D03*
X140970000Y-78740000D03*
X140970000Y-81280000D03*
X148590000Y-81280000D03*
X148590000Y-78740000D03*
X148590000Y-76200000D03*
X148590000Y-73660000D03*
X148590000Y-71120000D03*
X148590000Y-68580000D03*
X148590000Y-66040000D03*
X152400000Y-76200000D03*
X160020000Y-76200000D03*
X185420000Y-87630000D03*
X185420000Y-95250000D03*
X114300000Y-104120000D03*
X116840000Y-104120000D03*
X119380000Y-104120000D03*
X121920000Y-104120000D03*
X124460000Y-104120000D03*
X127000000Y-104120000D03*
X129540000Y-104120000D03*
X132080000Y-104120000D03*
X134620000Y-104120000D03*
X137160000Y-104120000D03*
X139700000Y-104120000D03*
X142240000Y-104120000D03*
X144780000Y-104120000D03*
X147320000Y-104120000D03*
X147320000Y-88880000D03*
X144780000Y-88880000D03*
X142240000Y-88880000D03*
X139700000Y-88880000D03*
X137160000Y-88880000D03*
X134620000Y-88880000D03*
X132080000Y-88880000D03*
X129540000Y-88880000D03*
X127000000Y-88880000D03*
X124460000Y-88880000D03*
X121920000Y-88880000D03*
X119380000Y-88880000D03*
X116840000Y-88880000D03*
X114300000Y-88880000D03*
X213741000Y-72729000D03*
X215011000Y-71459000D03*
X216281000Y-72729000D03*
X152400000Y-68580000D03*
X160020000Y-68580000D03*
X157480000Y-65532000D03*
X162480000Y-65532000D03*
X177800000Y-71120000D03*
X177800000Y-81280000D03*
X152400000Y-72390000D03*
X160020000Y-72390000D03*
X165100000Y-90170000D03*
X165100000Y-92710000D03*
X165100000Y-95250000D03*
X165100000Y-97790000D03*
X165100000Y-100330000D03*
X173990000Y-70485000D03*
X173990000Y-73025000D03*
X173990000Y-75565000D03*
X173990000Y-78105000D03*
X173990000Y-90170000D03*
X173990000Y-92710000D03*
X173990000Y-95250000D03*
X173990000Y-97790000D03*
X173990000Y-100330000D03*
X165100000Y-70485000D03*
X165100000Y-73025000D03*
X165100000Y-75565000D03*
X165100000Y-78105000D03*
M02*
